<mxfile host="app.diagrams.net" agent="Mozilla/5.0 (Macintosh; Intel Mac OS X 10_15_7) AppleWebKit/537.36 (KHTML, like Gecko) Chrome/141.0.0.0 Safari/537.36" version="28.2.5">
  <diagram name="Page-1" id="7gKtII_-Mh1-Oa0Vlkcx">
    <mxGraphModel dx="2066" dy="1150" grid="1" gridSize="10" guides="1" tooltips="1" connect="1" arrows="1" fold="1" page="1" pageScale="1" pageWidth="850" pageHeight="1100" math="0" shadow="0">
      <root>
        <mxCell id="0" />
        <mxCell id="1" parent="0" />
        <mxCell id="0AO5ceqc-iI6cO3YY5Pr-1" value="" style="rounded=1;whiteSpace=wrap;html=1;" vertex="1" parent="1">
          <mxGeometry x="260" y="120" width="270" height="540" as="geometry" />
        </mxCell>
        <mxCell id="0AO5ceqc-iI6cO3YY5Pr-2" value="" style="ellipse;whiteSpace=wrap;html=1;aspect=fixed;" vertex="1" parent="1">
          <mxGeometry x="440" y="130" width="10" height="10" as="geometry" />
        </mxCell>
        <mxCell id="0AO5ceqc-iI6cO3YY5Pr-3" value="" style="rounded=1;whiteSpace=wrap;html=1;" vertex="1" parent="1">
          <mxGeometry x="270" y="150" width="250" height="500" as="geometry" />
        </mxCell>
        <mxCell id="0AO5ceqc-iI6cO3YY5Pr-4" value="" style="rounded=1;whiteSpace=wrap;html=1;" vertex="1" parent="1">
          <mxGeometry x="360" y="130" width="70" height="10" as="geometry" />
        </mxCell>
        <mxCell id="0AO5ceqc-iI6cO3YY5Pr-5" value="" style="rounded=0;whiteSpace=wrap;html=1;" vertex="1" parent="1">
          <mxGeometry x="300" y="160" width="190" height="30" as="geometry" />
        </mxCell>
        <mxCell id="0AO5ceqc-iI6cO3YY5Pr-6" value="&lt;font face=&quot;Comic Sans MS&quot;&gt;Living Loved Aggregator&amp;nbsp;&lt;/font&gt;" style="text;html=1;align=center;verticalAlign=middle;whiteSpace=wrap;rounded=0;" vertex="1" parent="1">
          <mxGeometry x="315" y="160" width="160" height="30" as="geometry" />
        </mxCell>
        <mxCell id="0AO5ceqc-iI6cO3YY5Pr-7" value="" style="rounded=0;whiteSpace=wrap;html=1;" vertex="1" parent="1">
          <mxGeometry x="300" y="220" width="200" height="70" as="geometry" />
        </mxCell>
        <mxCell id="0AO5ceqc-iI6cO3YY5Pr-8" value="Home&lt;div&gt;&lt;span style=&quot;background-color: transparent; color: light-dark(rgb(0, 0, 0), rgb(255, 255, 255));&quot;&gt;Housing Support&lt;/span&gt;&lt;/div&gt;&lt;div&gt;Vocational Training&lt;/div&gt;&lt;div&gt;**Forum: Share Your Hope&lt;/div&gt;&lt;div&gt;&lt;br&gt;&lt;/div&gt;" style="text;html=1;align=left;verticalAlign=top;whiteSpace=wrap;rounded=0;fontFamily=Comic Sans MS;" vertex="1" parent="1">
          <mxGeometry x="310" y="220" width="180" height="70" as="geometry" />
        </mxCell>
        <mxCell id="0AO5ceqc-iI6cO3YY5Pr-9" value="" style="endArrow=none;html=1;rounded=0;" edge="1" parent="1">
          <mxGeometry width="50" height="50" relative="1" as="geometry">
            <mxPoint x="275" y="210" as="sourcePoint" />
            <mxPoint x="515" y="210" as="targetPoint" />
          </mxGeometry>
        </mxCell>
        <mxCell id="0AO5ceqc-iI6cO3YY5Pr-10" value="" style="endArrow=none;html=1;rounded=0;" edge="1" parent="1">
          <mxGeometry width="50" height="50" relative="1" as="geometry">
            <mxPoint x="275" y="310" as="sourcePoint" />
            <mxPoint x="515" y="310" as="targetPoint" />
          </mxGeometry>
        </mxCell>
        <mxCell id="0AO5ceqc-iI6cO3YY5Pr-11" value="&lt;font face=&quot;Comic Sans MS&quot;&gt;Search Box (Input Field)&lt;/font&gt;" style="rounded=1;whiteSpace=wrap;html=1;" vertex="1" parent="1">
          <mxGeometry x="280" y="330" width="230" height="30" as="geometry" />
        </mxCell>
        <mxCell id="0AO5ceqc-iI6cO3YY5Pr-12" value="&lt;font face=&quot;Comic Sans MS&quot;&gt;Search Button&lt;/font&gt;" style="rounded=1;whiteSpace=wrap;html=1;" vertex="1" parent="1">
          <mxGeometry x="340" y="360" width="110" height="20" as="geometry" />
        </mxCell>
        <mxCell id="0AO5ceqc-iI6cO3YY5Pr-16" value="&lt;font style=&quot;font-size: 14px;&quot; face=&quot;Comic Sans MS&quot;&gt;Â©2024 Living Loved&lt;/font&gt;&lt;div&gt;&lt;font style=&quot;font-size: 14px;&quot; face=&quot;Comic Sans MS&quot;&gt;info@livingloved.org&lt;/font&gt;&lt;/div&gt;" style="rounded=0;whiteSpace=wrap;html=1;" vertex="1" parent="1">
          <mxGeometry x="295" y="590" width="200" height="50" as="geometry" />
        </mxCell>
        <mxCell id="0AO5ceqc-iI6cO3YY5Pr-17" value="" style="rounded=0;whiteSpace=wrap;html=1;" vertex="1" parent="1">
          <mxGeometry x="300" y="390" width="80" height="40" as="geometry" />
        </mxCell>
        <mxCell id="0AO5ceqc-iI6cO3YY5Pr-18" value="" style="rounded=0;whiteSpace=wrap;html=1;" vertex="1" parent="1">
          <mxGeometry x="405" y="390" width="80" height="40" as="geometry" />
        </mxCell>
        <mxCell id="0AO5ceqc-iI6cO3YY5Pr-19" value="" style="rounded=0;whiteSpace=wrap;html=1;" vertex="1" parent="1">
          <mxGeometry x="300" y="440" width="80" height="40" as="geometry" />
        </mxCell>
        <mxCell id="0AO5ceqc-iI6cO3YY5Pr-20" value="" style="rounded=0;whiteSpace=wrap;html=1;" vertex="1" parent="1">
          <mxGeometry x="405" y="440" width="80" height="40" as="geometry" />
        </mxCell>
        <mxCell id="0AO5ceqc-iI6cO3YY5Pr-21" value="" style="rounded=0;whiteSpace=wrap;html=1;" vertex="1" parent="1">
          <mxGeometry x="300" y="490" width="80" height="40" as="geometry" />
        </mxCell>
        <mxCell id="0AO5ceqc-iI6cO3YY5Pr-22" value="" style="rounded=0;whiteSpace=wrap;html=1;" vertex="1" parent="1">
          <mxGeometry x="405" y="490" width="80" height="40" as="geometry" />
        </mxCell>
        <mxCell id="0AO5ceqc-iI6cO3YY5Pr-23" value="" style="rounded=0;whiteSpace=wrap;html=1;" vertex="1" parent="1">
          <mxGeometry x="300" y="540" width="80" height="40" as="geometry" />
        </mxCell>
        <mxCell id="0AO5ceqc-iI6cO3YY5Pr-24" value="" style="rounded=0;whiteSpace=wrap;html=1;" vertex="1" parent="1">
          <mxGeometry x="405" y="540" width="80" height="40" as="geometry" />
        </mxCell>
        <mxCell id="0AO5ceqc-iI6cO3YY5Pr-25" value="Chris Thomas&lt;div&gt;Main Search&lt;/div&gt;&lt;div&gt;Smartphone&lt;/div&gt;&lt;div&gt;Wireframe #1&lt;/div&gt;" style="text;html=1;align=left;verticalAlign=middle;whiteSpace=wrap;rounded=0;fontSize=9;" vertex="1" parent="1">
          <mxGeometry x="10" y="50" width="90" height="50" as="geometry" />
        </mxCell>
      </root>
    </mxGraphModel>
  </diagram>
</mxfile>
